<svg width="75" height="45" fill="none" xmlns="http://www.w3.org/2000/svg">
  <symbol id="d2"
          fill="currentColor">
    <path d="M15.539 45H.07V1.364h15.596c4.39 0 8.168.873 11.336 2.62 3.167 1.733 5.604 4.226 7.308 7.48 1.719 3.252 2.578 7.144 2.578 11.675 0 4.546-.86 8.452-2.578 11.719-1.705 3.267-4.155 5.774-7.35 7.521C23.776 44.126 19.97 45 15.538 45Zm-6.243-7.905h5.86c2.726 0 5.02-.483 6.881-1.449 1.875-.98 3.282-2.493 4.219-4.538.952-2.06 1.428-4.716 1.428-7.969 0-3.224-.476-5.86-1.428-7.905-.938-2.045-2.337-3.55-4.197-4.517-1.861-.966-4.155-1.449-6.883-1.449h-5.88v27.827ZM43.466 45v-6.648L59 23.97c1.321-1.278 2.43-2.429 3.324-3.451.91-1.023 1.598-2.025 2.067-3.005a7.449 7.449 0 0 0 .703-3.217c0-1.279-.291-2.38-.874-3.303a5.735 5.735 0 0 0-2.386-2.152c-1.008-.511-2.152-.767-3.43-.767-1.335 0-2.5.27-3.495.81a5.58 5.58 0 0 0-2.3 2.322c-.54 1.009-.81 2.21-.81 3.601H43.04c0-2.855.647-5.334 1.94-7.436 1.292-2.102 3.103-3.729 5.433-4.88 2.33-1.15 5.014-1.725 8.054-1.725 3.125 0 5.845.554 8.16 1.662 2.33 1.094 4.14 2.614 5.433 4.56 1.293 1.946 1.94 4.176 1.94 6.69 0 1.648-.327 3.274-.98 4.88-.64 1.604-1.783 3.387-3.431 5.347-1.648 1.946-3.97 4.283-6.968 7.01l-6.37 6.243v.298h18.324V45H43.467Z" />
  </symbol>
</svg>