<svg xmlns="http://www.w3.org/2000/svg" width="51" height="30" fill="none">
  <path fill="#000" d="M10.693 30H.38V.91h10.398c2.926 0 5.445.581 7.556 1.746 2.112 1.156 3.736 2.817 4.873 4.986 1.145 2.169 1.718 4.763 1.718 7.784 0 3.03-.573 5.635-1.718 7.813-1.137 2.178-2.77 3.85-4.9 5.014C16.184 29.418 13.646 30 10.692 30ZM6.53 24.73h3.906c1.818 0 3.347-.322 4.588-.966 1.25-.653 2.187-1.662 2.812-3.025.635-1.373.952-3.144.952-5.313 0-2.15-.317-3.906-.952-5.27-.625-1.363-1.557-2.367-2.798-3.011-1.24-.644-2.77-.966-4.588-.966h-3.92V24.73ZM29.31 30v-4.432l10.355-9.588c.88-.852 1.62-1.62 2.216-2.301.606-.682 1.065-1.35 1.378-2.003a4.966 4.966 0 0 0 .469-2.145c0-.852-.194-1.586-.583-2.201a3.824 3.824 0 0 0-1.59-1.435c-.673-.341-1.435-.511-2.287-.511-.89 0-1.667.18-2.33.54a3.72 3.72 0 0 0-1.534 1.548c-.36.672-.54 1.472-.54 2.4h-5.838c0-1.903.43-3.556 1.293-4.957.861-1.402 2.069-2.486 3.622-3.253 1.553-.767 3.343-1.15 5.37-1.15 2.082 0 3.896.369 5.44 1.107 1.552.73 2.76 1.743 3.622 3.04.861 1.297 1.292 2.784 1.292 4.46a8.56 8.56 0 0 1-.653 3.253c-.426 1.07-1.189 2.259-2.287 3.566-1.099 1.297-2.647 2.855-4.645 4.673l-4.247 4.162v.199H50.05V30H29.31Z"/>
</svg>
