<svg xmlns="http://www.w3.org/2000/svg" width="127" height="28" fill="none">
  <symbol id="header_logo" 
    fill="currentColor">
    <style>     
      path{    
        fill: #000;
    }
    
    @media (prefers-color-scheme: dark) {
      path{
        fill: #fff;
      }
    }
  </style>
  <path  d="M9.98 27H.7V.818h9.357c2.634 0 4.9.524 6.801 1.573 1.901 1.04 3.363 2.535 4.385 4.487 1.032 1.952 1.547 4.287 1.547 7.005 0 2.728-.515 5.072-1.547 7.032-1.022 1.96-2.492 3.464-4.41 4.513C14.923 26.476 12.64 27 9.98 27Zm-3.745-4.743H9.75c1.636 0 3.012-.29 4.129-.87 1.125-.587 1.968-1.495 2.531-2.722.571-1.236.857-2.83.857-4.781 0-1.935-.286-3.516-.857-4.743-.563-1.228-1.402-2.131-2.518-2.71-1.117-.58-2.493-.87-4.13-.87H6.235v16.696ZM26.737 27v-3.989l9.32-8.629a35.24 35.24 0 0 0 1.994-2.07c.546-.615.96-1.215 1.24-1.803a4.47 4.47 0 0 0 .422-1.93c0-.768-.175-1.428-.524-1.982a3.44 3.44 0 0 0-1.432-1.292c-.605-.306-1.29-.46-2.058-.46-.801 0-1.5.162-2.096.486a3.348 3.348 0 0 0-1.381 1.393c-.324.606-.486 1.326-.486 2.16h-5.254c0-1.712.387-3.2 1.163-4.46.776-1.262 1.862-2.238 3.26-2.928C32.303.806 33.913.46 35.737.46c1.875 0 3.508.333 4.897.997 1.397.657 2.484 1.569 3.26 2.736.775 1.168 1.163 2.506 1.163 4.014 0 .989-.196 1.965-.588 2.928-.384.963-1.07 2.033-2.058 3.209-.989 1.167-2.382 2.57-4.18 4.206l-3.823 3.745v.18h10.994V27H26.737Zm30.335 0V13.91h3.46v2.309h.154c.272-.767.727-1.372 1.363-1.816.636-.443 1.398-.664 2.284-.664.898 0 1.662.224 2.293.673a3.171 3.171 0 0 1 1.261 1.807h.137c.267-.75.75-1.35 1.448-1.799.705-.454 1.537-.681 2.498-.681 1.221 0 2.213.389 2.974 1.167.767.773 1.15 1.87 1.15 3.29V27h-3.621v-8.088c0-.727-.194-1.273-.58-1.636-.386-.364-.87-.546-1.449-.546-.659 0-1.173.21-1.543.63-.369.416-.553.964-.553 1.646V27h-3.52v-8.165c0-.642-.185-1.153-.554-1.534-.364-.38-.844-.57-1.44-.57a2 2 0 0 0-1.092.306c-.318.199-.57.48-.758.844-.188.358-.281.778-.281 1.261V27h-3.631Zm27.856.256c-1.346 0-2.505-.273-3.477-.819a5.603 5.603 0 0 1-2.233-2.335c-.523-1.011-.784-2.207-.784-3.588 0-1.346.261-2.528.784-3.545a5.796 5.796 0 0 1 2.208-2.378c.954-.568 2.073-.852 3.358-.852.863 0 1.667.139 2.411.417.75.273 1.404.685 1.96 1.236.563.551 1 1.244 1.313 2.08.313.83.469 1.8.469 2.914v.998H79.883v-2.25h7.636c0-.523-.113-.986-.34-1.39a2.442 2.442 0 0 0-.947-.946c-.397-.233-.86-.35-1.389-.35-.55 0-1.04.129-1.466.384-.42.25-.75.588-.988 1.015-.239.42-.361.889-.367 1.406v2.139c0 .648.12 1.207.358 1.679a2.62 2.62 0 0 0 1.031 1.09c.444.257.97.384 1.577.384.403 0 .773-.056 1.108-.17a2.3 2.3 0 0 0 .86-.511c.24-.228.421-.506.546-.836l3.358.222a4.585 4.585 0 0 1-1.048 2.114c-.523.596-1.199 1.062-2.028 1.397-.824.33-1.776.495-2.856.495Zm13.202-.043a4.942 4.942 0 0 1-2.702-.767c-.8-.517-1.437-1.276-1.909-2.276-.466-1.005-.699-2.238-.699-3.698 0-1.5.242-2.748.725-3.742.483-1 1.125-1.747 1.926-2.241.807-.5 1.69-.75 2.65-.75.734 0 1.344.125 1.833.375.494.244.892.55 1.193.92.307.364.54.722.699 1.074h.111V9.545h3.622V27h-3.58v-2.097h-.153a4.68 4.68 0 0 1-.724 1.083c-.307.352-.708.645-1.202.878-.489.233-1.085.35-1.79.35Zm1.15-2.89c.586 0 1.08-.158 1.484-.476.409-.324.721-.776.937-1.356.222-.58.333-1.258.333-2.037 0-.778-.108-1.454-.324-2.028-.216-.574-.529-1.017-.938-1.33-.409-.312-.906-.468-1.491-.468-.597 0-1.1.162-1.509.486-.409.323-.719.772-.929 1.346-.21.574-.315 1.239-.315 1.994 0 .762.105 1.435.315 2.02.216.58.526 1.035.93 1.364.408.324.911.486 1.508.486ZM108.565 27V13.91h3.631V27h-3.631Zm1.824-14.778c-.54 0-1.003-.18-1.389-.537-.381-.364-.571-.799-.571-1.304 0-.5.19-.93.571-1.287a1.954 1.954 0 0 1 1.389-.546c.54 0 1 .182 1.381.546.386.358.579.787.579 1.287 0 .505-.193.94-.579 1.304a1.944 1.944 0 0 1-1.381.537Zm8.448 15.025c-.835 0-1.579-.145-2.233-.434a3.599 3.599 0 0 1-1.551-1.304c-.375-.58-.562-1.302-.562-2.165 0-.728.133-1.338.4-1.833a3.244 3.244 0 0 1 1.091-1.193c.46-.301.983-.528 1.568-.682.591-.153 1.21-.261 1.858-.323.762-.08 1.375-.154 1.841-.222.466-.074.804-.182 1.014-.324.21-.142.316-.352.316-.63v-.052c0-.54-.171-.957-.512-1.253-.335-.295-.812-.443-1.432-.443-.653 0-1.173.145-1.559.435a1.996 1.996 0 0 0-.767 1.074l-3.358-.273a4.557 4.557 0 0 1 1.005-2.063c.5-.585 1.145-1.034 1.935-1.346.796-.318 1.716-.477 2.761-.477.728 0 1.424.085 2.089.255.67.17 1.264.435 1.781.793.523.358.934.818 1.236 1.38.301.557.451 1.225.451 2.003V27h-3.443v-1.815h-.102c-.21.409-.492.77-.844 1.082a3.896 3.896 0 0 1-1.27.724c-.494.17-1.065.256-1.713.256Zm1.04-2.506c.534 0 1.006-.105 1.415-.315.409-.216.73-.505.963-.87a2.24 2.24 0 0 0 .349-1.235v-1.39c-.113.075-.27.143-.469.205a8.55 8.55 0 0 1-.656.162 31.89 31.89 0 0 1-.733.128l-.665.094a4.485 4.485 0 0 0-1.116.298 1.793 1.793 0 0 0-.742.554c-.176.227-.264.512-.264.852 0 .495.179.873.537 1.134.364.256.824.383 1.381.383Z"/>
  </symbol>
</svg>
