<svg xmlns="http://www.w3.org/2000/svg" width="75" height="75">
    <symbol id="logo" 
    fill="currentColor">
  <path  d="M15.539 45H.07V1.364h15.596c4.39 0 8.168.873 11.336 2.62 3.167 1.733 5.604 4.226 7.308 7.48 1.719 3.252 2.578 7.144 2.578 11.675 0 4.546-.86 8.452-2.578 11.719-1.705 3.267-4.155 5.774-7.35 7.521C23.776 44.126 19.97 45 15.538 45Zm-6.243-7.905h5.86c2.726 0 5.02-.483 6.881-1.449 1.875-.98 3.282-2.493 4.219-4.538.952-2.06 1.428-4.716 1.428-7.969 0-3.224-.476-5.86-1.428-7.905-.938-2.045-2.337-3.55-4.197-4.517-1.861-.966-4.155-1.449-6.883-1.449h-5.88v27.827ZM43.466 45v-6.648L59 23.97c1.321-1.278 2.43-2.429 3.324-3.451.91-1.023 1.598-2.025 2.067-3.005a7.449 7.449 0 0 0 .703-3.217c0-1.279-.291-2.38-.874-3.303a5.735 5.735 0 0 0-2.386-2.152c-1.008-.511-2.152-.767-3.43-.767-1.335 0-2.5.27-3.495.81a5.58 5.58 0 0 0-2.3 2.322c-.54 1.009-.81 2.21-.81 3.601H43.04c0-2.855.647-5.334 1.94-7.436 1.292-2.102 3.103-3.729 5.433-4.88 2.33-1.15 5.014-1.725 8.054-1.725 3.125 0 5.845.554 8.16 1.662 2.33 1.094 4.14 2.614 5.433 4.56 1.293 1.946 1.94 4.176 1.94 6.69 0 1.648-.327 3.274-.98 4.88-.64 1.604-1.783 3.387-3.431 5.347-1.648 1.946-3.97 4.283-6.968 7.01l-6.37 6.243v.298h18.324V45H43.467ZM2.473 69V55.91h3.46v2.309h.154c.273-.767.727-1.372 1.364-1.816.636-.443 1.397-.664 2.284-.664.897 0 1.662.224 2.292.673a3.17 3.17 0 0 1 1.262 1.807h.136c.267-.75.75-1.35 1.449-1.799.704-.454 1.537-.681 2.497-.681 1.222 0 2.213.389 2.974 1.167.767.773 1.151 1.87 1.151 3.29V69h-3.622v-8.088c0-.727-.193-1.273-.58-1.636-.386-.364-.869-.546-1.448-.546-.66 0-1.174.21-1.543.63-.37.416-.554.964-.554 1.646V69h-3.52v-8.165c0-.642-.185-1.153-.554-1.534-.364-.38-.844-.57-1.44-.57a2 2 0 0 0-1.091.306c-.318.199-.571.48-.759.844-.187.358-.281.778-.281 1.261V69h-3.63Zm27.857.256c-1.347 0-2.506-.273-3.477-.819a5.603 5.603 0 0 1-2.233-2.335c-.523-1.011-.785-2.207-.785-3.588 0-1.346.262-2.528.785-3.545a5.796 5.796 0 0 1 2.207-2.378c.954-.568 2.074-.852 3.358-.852.864 0 1.668.139 2.412.417.75.273 1.403.685 1.96 1.236.563.551 1 1.244 1.313 2.08.312.83.468 1.8.468 2.914v.997H25.283v-2.25h7.637c0-.522-.114-.985-.341-1.389a2.442 2.442 0 0 0-.946-.946c-.398-.233-.861-.35-1.39-.35-.55 0-1.04.129-1.465.384-.42.25-.75.588-.989 1.015-.239.42-.36.889-.366 1.406v2.139c0 .648.119 1.207.358 1.679a2.62 2.62 0 0 0 1.03 1.09c.444.257.97.385 1.578.385.403 0 .772-.057 1.107-.171.336-.114.623-.284.861-.511.239-.228.42-.506.546-.836l3.358.222a4.585 4.585 0 0 1-1.049 2.114c-.522.596-1.199 1.062-2.028 1.397-.824.33-1.776.495-2.855.495Zm13.202-.043a4.942 4.942 0 0 1-2.702-.767c-.801-.517-1.438-1.275-1.91-2.275-.465-1.006-.698-2.24-.698-3.7 0-1.5.241-2.747.724-3.74.483-1 1.125-1.748 1.926-2.242.807-.5 1.69-.75 2.651-.75.733 0 1.344.125 1.832.375.495.244.892.55 1.194.92.306.364.54.722.698 1.074h.111v-6.563h3.622V69H47.4v-2.097h-.153a4.68 4.68 0 0 1-.724 1.083c-.307.352-.707.645-1.202.878-.488.233-1.085.35-1.79.35Zm1.15-2.89c.585 0 1.08-.158 1.483-.476.41-.324.722-.776.938-1.355.221-.58.332-1.259.332-2.038 0-.778-.108-1.454-.324-2.028-.216-.574-.528-1.017-.937-1.33-.41-.312-.907-.468-1.492-.468-.596 0-1.1.162-1.508.486-.41.324-.72.772-.93 1.346-.21.574-.315 1.239-.315 1.995 0 .76.105 1.434.316 2.02.215.579.525 1.034.929 1.363.409.324.911.486 1.508.486ZM53.965 69V55.91h3.63V69h-3.63Zm1.823-14.778c-.54 0-1.002-.18-1.389-.537-.38-.364-.57-.799-.57-1.304 0-.5.19-.93.57-1.287.386-.364.85-.546 1.39-.546.54 0 1 .182 1.38.546.386.358.58.787.58 1.287 0 .505-.194.94-.58 1.304-.38.358-.84.537-1.38.537Zm8.449 15.025c-.836 0-1.58-.145-2.233-.434a3.595 3.595 0 0 1-1.552-1.305c-.375-.579-.562-1.3-.562-2.164 0-.727.133-1.338.4-1.833.267-.494.631-.892 1.091-1.193.46-.301.983-.528 1.569-.682.59-.153 1.21-.261 1.858-.324.76-.079 1.374-.153 1.84-.221.466-.074.804-.182 1.015-.324.21-.142.315-.352.315-.63v-.052c0-.54-.17-.957-.511-1.253-.336-.295-.813-.443-1.432-.443-.654 0-1.173.145-1.56.435a2 2 0 0 0-.767 1.074l-3.358-.273a4.563 4.563 0 0 1 1.006-2.063c.5-.585 1.145-1.034 1.934-1.346.796-.318 1.716-.477 2.762-.477.727 0 1.423.085 2.088.255.67.17 1.264.435 1.781.793.523.358.935.818 1.236 1.38.301.557.452 1.225.452 2.003V69h-3.444v-1.815h-.102c-.21.409-.491.77-.844 1.082a3.906 3.906 0 0 1-1.27.725c-.494.17-1.065.255-1.712.255Zm1.04-2.505c.533 0 1.005-.106 1.414-.316.41-.216.73-.505.963-.87.233-.363.35-.775.35-1.235v-1.39c-.114.075-.27.143-.47.205-.192.057-.411.111-.655.162-.245.046-.49.088-.733.128l-.665.094a4.49 4.49 0 0 0-1.117.298 1.785 1.785 0 0 0-.741.554c-.176.227-.264.511-.264.852 0 .495.179.873.537 1.134.363.256.823.383 1.38.383Z"/>
  </symbol>
</svg>
