<svg width="88" height="25" fill="none" xmlns="http://www.w3.org/2000/svg">
    <symbol id="media" 
    fill="currentColor">
      <style>     
        path{    
        fill: #000;
        }
    
        @media (prefers-color-scheme: dark) {
           path{
             fill: #fff;
           }
        }
      </style>
    <path d="M.84 24V7.636h4.326v2.887h.191c.341-.958.91-1.715 1.705-2.269s1.747-.83 2.855-.83c1.122 0 2.078.28 2.866.84.788.555 1.314 1.308 1.577 2.26h.17c.334-.938.938-1.687 1.811-2.248.88-.569 1.921-.853 3.121-.853 1.527 0 2.767.487 3.719 1.46.958.966 1.438 2.337 1.438 4.112V24H20.09V13.89c0-.91-.241-1.591-.724-2.046-.483-.454-1.087-.681-1.811-.681-.824 0-1.467.262-1.929.788-.461.518-.692 1.204-.692 2.056V24h-4.4V13.794c0-.803-.23-1.442-.692-1.918-.455-.475-1.055-.713-1.8-.713a2.5 2.5 0 0 0-1.365.383c-.397.249-.713.6-.948 1.055-.234.447-.351.973-.351 1.577V24H.84Zm34.821.32c-1.683 0-3.132-.341-4.347-1.023a7.004 7.004 0 0 1-2.79-2.92c-.654-1.263-.98-2.758-.98-4.484 0-1.684.326-3.16.98-4.432.653-1.271 1.572-2.262 2.758-2.972 1.194-.71 2.593-1.066 4.198-1.066 1.08 0 2.085.174 3.015.522.937.341 1.754.856 2.45 1.545.703.689 1.25 1.556 1.64 2.6.391 1.036.587 2.25.587 3.643v1.246H29.354v-2.812H38.9c0-.653-.142-1.232-.426-1.737a3.051 3.051 0 0 0-1.183-1.182c-.497-.291-1.076-.437-1.736-.437-.69 0-1.3.16-1.833.48a3.362 3.362 0 0 0-1.236 1.267 3.58 3.58 0 0 0-.458 1.758v2.674c0 .81.15 1.51.448 2.099.305.59.735 1.044 1.289 1.363.554.32 1.21.48 1.97.48.505 0 .967-.071 1.386-.213a2.875 2.875 0 0 0 1.076-.64 2.78 2.78 0 0 0 .681-1.044l4.198.277a5.73 5.73 0 0 1-1.31 2.642c-.654.746-1.5 1.329-2.536 1.748-1.03.412-2.22.618-3.569.618Zm16.502-.054c-1.243 0-2.368-.32-3.377-.958-1.001-.647-1.797-1.595-2.386-2.845-.583-1.257-.874-2.798-.874-4.624 0-1.875.302-3.434.906-4.676.603-1.25 1.406-2.184 2.407-2.802a6.169 6.169 0 0 1 3.314-.938c.916 0 1.68.157 2.29.47.618.304 1.115.688 1.492 1.15.383.454.674.902.873 1.342h.139V2.182h4.527V24H57v-2.62h-.192a5.851 5.851 0 0 1-.905 1.352c-.384.44-.885.806-1.503 1.098-.61.29-1.356.436-2.237.436Zm1.438-3.611c.732 0 1.35-.199 1.854-.597.511-.405.902-.97 1.172-1.694.277-.724.415-1.573.415-2.546 0-.973-.135-1.818-.404-2.535-.27-.718-.66-1.272-1.172-1.662-.512-.39-1.133-.586-1.865-.586-.745 0-1.374.202-1.885.607-.512.405-.899.966-1.162 1.683-.262.718-.394 1.549-.394 2.493 0 .952.132 1.793.395 2.525.27.724.657 1.293 1.16 1.705.512.404 1.14.607 1.886.607ZM65.206 24V7.636h4.538V24h-4.538Zm2.28-18.473a2.466 2.466 0 0 1-1.737-.671c-.476-.455-.714-.998-.714-1.63 0-.625.238-1.161.714-1.609a2.445 2.445 0 0 1 1.736-.682c.675 0 1.25.228 1.726.682.483.448.725.984.725 1.609 0 .632-.242 1.175-.725 1.63-.476.447-1.05.671-1.726.671Zm10.56 18.782c-1.044 0-1.975-.181-2.792-.543a4.494 4.494 0 0 1-1.939-1.63c-.468-.725-.703-1.627-.703-2.706 0-.91.167-1.673.501-2.29a4.055 4.055 0 0 1 1.364-1.492 6.613 6.613 0 0 1 1.96-.852 14.946 14.946 0 0 1 2.322-.405c.952-.1 1.72-.192 2.302-.277.582-.093 1.004-.228 1.267-.405.263-.178.394-.44.394-.788v-.064c0-.675-.213-1.197-.639-1.566-.419-.37-1.015-.555-1.79-.555-.816 0-1.466.182-1.95.544-.482.355-.802.802-.958 1.342l-4.197-.34c.213-.995.632-1.854 1.257-2.579.625-.731 1.43-1.292 2.418-1.683.994-.398 2.145-.597 3.452-.597.909 0 1.779.107 2.61.32a6.83 6.83 0 0 1 2.227.99 4.815 4.815 0 0 1 1.544 1.726c.377.697.565 1.531.565 2.504V24h-4.304v-2.27h-.128a4.617 4.617 0 0 1-1.055 1.354 4.88 4.88 0 0 1-1.587.905c-.618.213-1.332.32-2.141.32Zm1.3-3.132c.667 0 1.257-.131 1.768-.394.511-.27.912-.632 1.204-1.087.29-.455.436-.97.436-1.545v-1.736a2.434 2.434 0 0 1-.586.256c-.241.07-.514.138-.82.202-.305.057-.61.11-.916.16l-.831.117a5.617 5.617 0 0 0-1.396.373c-.397.17-.706.401-.926.692-.22.284-.33.64-.33 1.066 0 .617.223 1.09.67 1.416.455.32 1.03.48 1.726.48Z"/>
  </symbol>
</svg>