<svg xmlns="http://www.w3.org/2000/svg" width="453" height="445" fill="none">
  <symbol id="tg" 
    fill="currentColor">
    <style>     
      path{    
        fill: #000;
    }
    
    @media (prefers-color-scheme: dark) {
      path{
        fill: #000;
      }
    }
  </style>  
    <path fill="none" stroke="CurrentColor" stroke-width="5" d="M154 16.6c-12.7 1.5-29.9 5.8-39 9.7-9 3.9-11.5 5-14 6.4-1.4.8-3.3 1.7-4.2 2-1 .3-1.8.9-1.8 1.4 0 .5-.6.9-1.2.9-4.9 0-33.9 25.1-42.3 36.5-1.7 2.2-3.3 4.2-3.6 4.5-1.1 1-7.9 12-7.9 12.9 0 .5-.4 1.1-.8 1.3-.7.3-6.7 12.3-9.2 18.3-1.1 2.7-5.5 16-6.8 21-2 7-4.2 25.7-4.2 35.2 0 9.5 2.2 27.7 4.1 34.8 5.3 18.8 11.3 32.8 20.8 47.5 2.9 4.7 5.7 8.7 6 9 .3.3 2.9 3.2 5.6 6.5 6.5 7.7 8.6 9.8 17.1 17 12.5 10.5 25.6 18.7 37.5 23.4 1.9.7 4.8 1.9 6.4 2.6 6.7 3 11.5 4.3 32.3 8.4 7 1.4 35.5 1.4 42.4 0 20.3-4.2 25.6-5.7 38.8-11.5 10.7-4.6 13-5.8 13-6.7 0-.4.6-.7 1.3-.7 2.9 0 22.8-15.2 31.7-24.1 10.6-10.7 21.8-25.9 27.2-36.9 3.2-6.6 7.5-16.5 8.2-19 .4-1.4 1.1-3.4 1.6-4.5 1.8-4.2 5-19.3 6-28 2.5-22.5.3-44.5-6.6-65.5-2.4-7.5-11.1-25.9-15.3-32.5-4.7-7.3-15.3-20.7-20.6-26-8.6-8.6-31.2-25.5-34-25.5-.4 0-1.9-.8-3.3-1.8-3.5-2.4-16.8-7.9-25.2-10.4-6.5-1.9-8.9-2.5-18.5-4.8-5-1.2-34.9-2.2-41.5-1.4zm41.5 2.4c9.6 2.3 12 2.9 18.5 4.8 8.4 2.5 21.7 8 25.2 10.4 1.4 1 2.9 1.8 3.3 1.8.4 0 5.2 2.9 10.6 6.5 14.9 9.7 32.7 27.9 43 44 4.2 6.5 12.9 25 15.3 32.5 6.9 21 9.1 43 6.6 65.5-1 8.7-4.2 23.8-6 28-.5 1.1-1.2 3.1-1.6 4.5-.7 2.4-3.2 8.2-8 18.5-5.9 12.7-21.3 32.2-34.2 43.5-7.9 6.8-21.9 17-23.5 17-.5 0-2.2.9-3.7 2-3.2 2.3-15.6 7.7-24.5 10.8-5.5 1.8-11 3.2-25.3 6.1-6.9 1.4-35.4 1.4-42.4 0-20.9-4.2-25.5-5.4-32.6-8.5-1.7-.8-4.9-2.1-7-2.9-6.3-2.7-17.5-8.7-22.1-11.9-2.3-1.7-5.5-3.9-6.9-4.8-5-3.3-20.2-17.9-26-25.1-14.2-17.5-23.3-35.6-30.1-60.2-1.9-7.1-4.1-25.3-4.1-34.8 0-9.5 2.2-28.2 4.2-35.2 3.3-12 6.2-19.9 10.8-29.5 8.1-17.2 15.5-27.4 30.4-42.4C74.1 51 90.8 38 93.3 38c.5 0 2.8-1.4 5.2-3 2.4-1.7 4.9-3 5.5-3 .7 0 2.4-.6 3.8-1.4 10.8-5.8 29.7-11.1 46.2-13 6.6-.8 36.5.2 41.5 1.4z"/>
    <path fill="none" stroke="CurrentColor" stroke-width="5" d="M214.5 97.1c-4.4 1.7-9.4 3.7-11.2 4.5-1.7.8-3.4 1.4-3.8 1.4-.5 0-55.1 21-71.5 27.5-1.9.7-16.1 6.2-31.5 12.2-31.2 12-35.8 14.7-34 19.9 1.2 3.3 5.4 5.6 16.6 9 8 2.4 14.3 4.3 25.1 7.7l4.8 1.5 11.7-7.5c6.5-4.2 19.9-12.6 29.8-18.8 9.9-6.1 24.5-15.3 32.4-20.4 7.9-5 14.5-9 14.8-8.8.2.3-15.4 14.7-34.7 32.1l-35 31.7v4.7c0 2.6-.5 11.6-1.2 20-.9 11.2-.9 15.5-.1 16.3 2.4 2.4 6.9-.4 17.3-10.6l10.5-10.4 7 5.3c31.2 23.7 36.4 26.8 41.2 24.4 3.8-1.9 6.1-5.6 7.4-11.8.6-3 1.5-7.1 1.9-9 .4-1.9 1.9-9.1 3.4-16 1.4-6.9 3.5-16.8 4.6-22 1.2-5.2 3.2-14.7 4.5-21 1.3-6.3 4-19.2 6.1-28.5 2-9.4 3.9-20.2 4.1-24.2.5-6.7.3-7.4-2-9.7-3.5-3.5-8.1-3.3-18.2.5zm17.6 0c1.9 1.9 2.1 3 1.6 9.3-.2 3.9-2.1 14.7-4.1 24.1-2.1 9.3-4.8 22.2-6.1 28.5-1.3 6.3-3.3 15.8-4.5 21-1.1 5.2-3.2 15.1-4.6 22-1.5 6.9-3 14.1-3.4 16-.4 1.9-1.3 5.9-1.9 8.9-2 9.8-6 13.2-12.9 10.8-3.3-1.2-14.8-9.2-34.7-24.3l-7-5.3-10.5 10.4c-9.6 9.4-14.9 12.9-16.7 11.1-.4-.4-.1-7.5.5-15.9.7-8.3 1.2-17.3 1.2-19.9v-4.6l25.8-23.3c14.1-12.7 29.7-26.8 34.6-31.3 4.9-4.4 10.1-9.1 11.5-10.3 2.5-2.2 1.9-2.9-1.3-1.7-.9.3-1.3 1.1-.9 1.7.3.5.1.7-.5.3-.6-.3-7.5 3.5-15.4 8.6-7.9 5-22.4 14.2-32.3 20.3-9.9 6.2-23.3 14.6-29.8 18.8l-11.7 7.5-4.8-1.5c-10.6-3.3-17.1-5.3-24.9-7.7-11.6-3.5-15.2-5.4-16-8.4-1.1-4.5 3.3-7 33.2-18.5 15.4-6 29.6-11.5 31.5-12.2 16.4-6.5 71-27.5 71.5-27.5.4 0 2.1-.6 3.8-1.4 9.1-4.1 19.6-7.5 23-7.6 2.5 0 4.4.7 5.8 2.1z"/>
  </symbol>
</svg>